<?xml version="1.0" encoding="UTF-8" standalone="no"?>
<svg
   xmlns:dc="http://purl.org/dc/elements/1.1/"
   xmlns:cc="http://creativecommons.org/ns#"
   xmlns:rdf="http://www.w3.org/1999/02/22-rdf-syntax-ns#"
   xmlns:svg="http://www.w3.org/2000/svg"
   xmlns="http://www.w3.org/2000/svg"
   xmlns:sodipodi="http://sodipodi.sourceforge.net/DTD/sodipodi-0.dtd"
   xmlns:inkscape="http://www.inkscape.org/namespaces/inkscape"
   width="512"
   height="512"
   viewBox="0 0 135.46666 135.46667"
   version="1.1"
   id="svg8"
   inkscape:version="1.0.1 (3bc2e813f5, 2020-09-07)"
   sodipodi:docname="icon.svg"
   inkscape:export-filename="/home/rodrigo/development_projects/Moedeiro/icon2.png"
   inkscape:export-xdpi="96"
   inkscape:export-ydpi="96">
  <defs
     id="defs2">
    <rect
       x="-61.361325"
       y="12.78822"
       width="236.32995"
       height="117.26973"
       id="rect1428" />
    <rect
       x="189.57031"
       y="133.01775"
       width="178.84403"
       height="95.613585"
       id="rect1422" />
    <rect
       x="10.378619"
       y="19.730964"
       width="115.60973"
       height="107.02057"
       id="rect1404" />
  </defs>
  <sodipodi:namedview
     id="base"
     pagecolor="#ffffff"
     bordercolor="#666666"
     borderopacity="1.0"
     inkscape:pageopacity="0.0"
     inkscape:pageshadow="2"
     inkscape:zoom="1"
     inkscape:cx="87.216808"
     inkscape:cy="296.97499"
     inkscape:document-units="mm"
     inkscape:current-layer="layer1"
     inkscape:document-rotation="0"
     showgrid="false"
     units="px"
     inkscape:window-width="1994"
     inkscape:window-height="991"
     inkscape:window-x="26"
     inkscape:window-y="23"
     inkscape:window-maximized="0" />
  <metadata
     id="metadata5">
    <rdf:RDF>
      <cc:Work
         rdf:about="">
        <dc:format>image/svg+xml</dc:format>
        <dc:type
           rdf:resource="http://purl.org/dc/dcmitype/StillImage" />
        <dc:title />
      </cc:Work>
    </rdf:RDF>
  </metadata>
  <g
     inkscape:label="Capa 1"
     inkscape:groupmode="layer"
     id="layer1">
    <text
       xml:space="preserve"
       id="text1402"
       style="font-style:normal;font-weight:normal;font-size:88.1944px;line-height:0;font-family:sans-serif;white-space:pre;shape-inside:url(#rect1404);fill:#000000;fill-opacity:1;stroke:none;" />
    <text
       xml:space="preserve"
       id="text1420"
       style="fill:black;fill-opacity:1;line-height:1.25;stroke:none;font-family:sans-serif;font-style:normal;font-weight:normal;font-size:10.58333333px;white-space:pre;shape-inside:url(#rect1422);" />
    <text
       xml:space="preserve"
       id="text1426"
       style="fill:black;fill-opacity:1;line-height:1.25;stroke:none;font-family:sans-serif;font-style:normal;font-weight:normal;font-size:10.58333333px;white-space:pre;shape-inside:url(#rect1428);" />
    <path
       style="fill:#ff6600;stroke-width:0"
       d=""
       id="path1474"
       transform="scale(0.26458333)" />
    <path
       style="fill:#ff9955;stroke-width:0"
       d=""
       id="path1476"
       transform="scale(0.26458333)" />
    <path
       style="fill:#ff9955;stroke-width:0"
       d=""
       id="path1480"
       transform="scale(0.26458333)" />
    <path
       style="fill:#ff7f2a;stroke-width:0"
       d=""
       id="path1498"
       transform="scale(0.26458333)" />
    <path
       style="fill:#ff7f2a;fill-opacity:1;stroke-width:0"
       d="m 255.15195,244.80196 c -18.60438,-6.57895 -44.5999,-10.97783 -57.93456,-9.8035 l -7.06544,0.62223 -22.62697,-39.48805 -22.62698,-39.48805 3.80221,-6.55397 c 12.0671,-20.80039 25.24013,-36.15364 35.636,-41.53398 3.68915,-1.9093 10.02379,-1.31209 15.49609,1.46094 3.3516,1.69838 8.42307,6.08752 14.71676,12.73673 26.57745,28.07876 32.14261,32.48884 42.22027,33.45718 4.58645,0.4407 4.8989,0.29365 9.80864,-4.61608 8.4419,-8.4419 18.37179,-14.17598 25.12066,-14.5061 l 3.33498,-0.16312 10.22429,31.5 c 9.00733,27.75066 10.03392,31.61903 8.62482,32.5 -4.60248,2.87749 -11.20389,10.0627 -20.11133,21.8899 -14.03316,18.63307 -21.21045,24.73972 -28.83732,24.53567 -1.53017,-0.0409 -5.93212,-1.18835 -9.78212,-2.5498 z"
       id="path1623"
       transform="scale(0.26458333)" />
    <path
       style="fill:#d4ff2a;fill-opacity:1;stroke-width:0"
       d="m 334.11457,203.69969 c -4.26791,-2.80053 -7.38118,-3.95591 -11.14543,-4.13624 -1.75476,-0.0841 -3.75215,0.002 -4.43865,0.19179 l -1.24818,0.34464 -10.19703,-31.68383 c -5.60836,-17.4261 -10.27846,-31.9873 -10.37799,-32.35822 -0.17284,-0.64411 -0.008,-0.66324 3.67553,-0.4259 11.45404,0.73806 21.80887,5.20761 33.52341,14.47004 6.8307,5.40089 16.60039,15.75989 23.87084,25.31076 l 2.05158,2.69506 -11.35444,13.67466 c -6.24494,7.52106 -11.43398,13.67073 -11.53121,13.66593 -0.0972,-0.005 -1.37002,-0.79171 -2.82843,-1.74869 z"
       id="path1625"
       transform="scale(0.26458333)" />
    <path
       style="fill:#2a7fff;fill-opacity:1;stroke-width:0"
       d="m 336.82545,393.02991 c -0.40817,-4.32305 -0.2479,-15.6999 0.31089,-22.06856 0.99833,-11.37821 2.4958,-21.47697 7.23477,-48.79037 6.32086,-36.43072 7.99394,-49.57197 8.37237,-65.76093 0.39297,-16.81096 -1.45779,-28.45491 -6.04105,-38.00699 -1.84913,-3.8538 -5.01262,-8.44322 -7.39953,-10.73483 l -1.23833,-1.18888 11.16479,-13.39519 c 6.14064,-7.36736 11.30261,-13.39519 11.47106,-13.39519 0.16845,0 2.27135,2.9831 4.67312,6.62912 13.89882,21.09916 25.97915,46.64165 35.16776,74.35821 l 1.82458,5.50368 -29.12997,57.6056 c -16.02148,31.68307 -30.7161,60.77474 -32.65472,64.64814 l -3.52476,7.04254 z"
       id="path1627"
       transform="scale(0.26458333)" />
    <path
       style="fill:#ff00cc;fill-opacity:1;stroke-width:0"
       d="m 359.74719,421.46306 c -11.7091,-0.85813 -18.84158,-7.82939 -21.88427,-21.38958 l -0.48856,-2.17735 32.66113,-64.61112 c 17.96362,-35.53612 32.73104,-64.68104 32.8165,-64.7665 0.36529,-0.36528 4.61225,15.3063 6.68311,24.66109 2.8314,12.79047 4.64721,24.08358 5.77003,35.88567 0.75165,7.90072 0.85747,26.64693 0.18461,32.70369 -1.90507,17.14855 -5.77405,29.57337 -12.28309,39.44588 -2.45568,3.72464 -8.852,10.32494 -12.14012,12.52729 -8.60493,5.76348 -19.93083,8.55557 -31.31934,7.72093 z"
       id="path1629"
       transform="scale(0.26458333)" />
    <path
       style="fill:#ffd42a;fill-opacity:1;stroke-width:0"
       d="m 142.31186,422.0964 c -8.58357,-2.79427 -18.21404,-9.28603 -24.56215,-16.55701 -13.11986,-15.02717 -20.025529,-36.4072 -21.206809,-65.65655 -1.826039,-45.21408 12.200069,-106.44386 36.837409,-160.81051 1.78393,-3.93656 3.36188,-7.03899 3.50657,-6.89429 0.14468,0.14469 9.31604,15.48068 20.38079,34.07998 l 20.11773,33.81689 -1.79388,0.83134 c -3.19013,1.4784 -6.89799,4.126 -10.09675,7.20962 -15.80449,15.23556 -20.41499,42.29586 -15.20768,89.25791 0.39889,3.5974 1.748,14.18724 2.99803,23.53297 4.27735,31.97929 4.99064,40.63858 4.04632,49.12225 -0.71767,6.44755 -2.51263,10.27889 -5.60377,11.9613 -2.28345,1.24281 -5.80221,1.28246 -9.41581,0.1061 z"
       id="path1631"
       transform="scale(0.26458333)" />
    <path
       style="fill:#ff2a2a;fill-opacity:1;stroke-width:0"
       d="m 158.05573,204.76996 -20.57653,-34.59725 3.08387,-6.01692 3.08387,-6.01692 7.95243,13.86864 c 20.58405,35.89753 32.81109,57.15818 34.74048,60.40751 1.1609,1.95509 2.11073,3.6737 2.11073,3.81912 0,0.14542 -0.88662,0.46281 -1.97026,0.70532 -1.08364,0.24251 -3.29276,0.88796 -4.90915,1.43434 l -2.9389,0.99341 z"
       id="path1633"
       transform="scale(0.26458333)" />
  </g>
</svg>
