<?xml version="1.0" encoding="UTF-8" standalone="no"?>
<!-- Created with Inkscape (http://www.inkscape.org/) -->

<svg
   xmlns:dc="http://purl.org/dc/elements/1.1/"
   xmlns:cc="http://creativecommons.org/ns#"
   xmlns:rdf="http://www.w3.org/1999/02/22-rdf-syntax-ns#"
   xmlns:svg="http://www.w3.org/2000/svg"
   xmlns="http://www.w3.org/2000/svg"
   xmlns:sodipodi="http://sodipodi.sourceforge.net/DTD/sodipodi-0.dtd"
   xmlns:inkscape="http://www.inkscape.org/namespaces/inkscape"
   width="512"
   height="512"
   viewBox="0 0 135.46666 135.46667"
   version="1.1"
   id="svg8"
   inkscape:version="1.0.1 (3bc2e813f5, 2020-09-07)"
   sodipodi:docname="icon.svg"
   inkscape:export-filename="/home/rodrigo/development_projects/Moedeiro/icon.png"
   inkscape:export-xdpi="96"
   inkscape:export-ydpi="96">
  <defs
     id="defs2">
    <rect
       x="-61.361325"
       y="12.78822"
       width="236.32995"
       height="117.26973"
       id="rect1428" />
    <rect
       x="189.57031"
       y="133.01775"
       width="178.84403"
       height="95.613585"
       id="rect1422" />
    <rect
       x="10.378619"
       y="19.730964"
       width="115.60973"
       height="107.02057"
       id="rect1404" />
    <filter
       inkscape:collect="always"
       style="color-interpolation-filters:sRGB"
       id="filter1723"
       x="-0.00023371008"
       width="1.0004674"
       y="-0.00023670903"
       height="1.0004734">
      <feGaussianBlur
         inkscape:collect="always"
         stdDeviation="0.0082332563"
         id="feGaussianBlur1725" />
    </filter>
  </defs>
  <sodipodi:namedview
     id="base"
     pagecolor="#ffffff"
     bordercolor="#666666"
     borderopacity="1.0"
     inkscape:pageopacity="0.0"
     inkscape:pageshadow="2"
     inkscape:zoom="1"
     inkscape:cx="87.216808"
     inkscape:cy="296.97499"
     inkscape:document-units="mm"
     inkscape:current-layer="layer1"
     inkscape:document-rotation="0"
     showgrid="false"
     units="px"
     inkscape:window-width="1994"
     inkscape:window-height="991"
     inkscape:window-x="26"
     inkscape:window-y="23"
     inkscape:window-maximized="0" />
  <metadata
     id="metadata5">
    <rdf:RDF>
      <cc:Work
         rdf:about="">
        <dc:format>image/svg+xml</dc:format>
        <dc:type
           rdf:resource="http://purl.org/dc/dcmitype/StillImage" />
        <dc:title></dc:title>
      </cc:Work>
    </rdf:RDF>
  </metadata>
  <g
     inkscape:label="Capa 1"
     inkscape:groupmode="layer"
     id="layer1"
     style="filter:url(#filter1723)">
    <text
       xml:space="preserve"
       id="text1402"
       style="font-style:normal;font-weight:normal;font-size:88.1944px;line-height:0;font-family:sans-serif;white-space:pre;shape-inside:url(#rect1404);fill:#000000;fill-opacity:1;stroke:none"><tspan
         style="line-height:1.25"
         id="tspan1418" /></text>
    <text
       xml:space="preserve"
       id="text1420"
       style="fill:black;fill-opacity:1;line-height:1.25;stroke:none;font-family:sans-serif;font-style:normal;font-weight:normal;font-size:10.58333333px;white-space:pre;shape-inside:url(#rect1422)"><tspan
         sodipodi:role="line"
         id="tspan1424"></tspan></text>
    <text
       xml:space="preserve"
       id="text1426"
       style="fill:black;fill-opacity:1;line-height:1.25;stroke:none;font-family:sans-serif;font-style:normal;font-weight:normal;font-size:10.58333333px;white-space:pre;shape-inside:url(#rect1428)"><tspan
         sodipodi:role="line"
         id="tspan1430"></tspan></text>
    <path
       style="fill:#ff6600;stroke-width:0"
       d=""
       id="path1474"
       transform="scale(0.26458333)" />
    <path
       style="fill:#ff9955;stroke-width:0"
       d=""
       id="path1476"
       transform="scale(0.26458333)" />
    <path
       style="fill:#ff9955;stroke-width:0"
       d=""
       id="path1480"
       transform="scale(0.26458333)" />
    <path
       style="fill:#ff7f2a;stroke-width:0"
       d=""
       id="path1498"
       transform="scale(0.26458333)" />
    <g
       id="g3441">
      <g
         id="g3387"
         transform="scale(0.26458333)"
         style="opacity:1">
        <path
           style="color:#000000;font-style:normal;font-variant:normal;font-weight:normal;font-stretch:normal;font-size:medium;line-height:normal;font-family:sans-serif;font-variant-ligatures:normal;font-variant-position:normal;font-variant-caps:normal;font-variant-numeric:normal;font-variant-alternates:normal;font-variant-east-asian:normal;font-feature-settings:normal;font-variation-settings:normal;text-indent:0;text-align:start;text-decoration:none;text-decoration-line:none;text-decoration-style:solid;text-decoration-color:#000000;letter-spacing:normal;word-spacing:normal;text-transform:none;writing-mode:lr-tb;direction:ltr;text-orientation:mixed;dominant-baseline:auto;baseline-shift:baseline;text-anchor:start;white-space:normal;shape-padding:0;shape-margin:0;inline-size:0;clip-rule:nonzero;display:inline;overflow:visible;visibility:visible;isolation:auto;mix-blend-mode:normal;color-interpolation:sRGB;color-interpolation-filters:linearRGB;solid-color:#000000;solid-opacity:1;vector-effect:none;fill:#ff7f2a;fill-opacity:1;fill-rule:nonzero;stroke-width:0;stroke-linecap:butt;stroke-linejoin:miter;stroke-miterlimit:4;stroke-dasharray:none;stroke-dashoffset:0;stroke-opacity:1.0;color-rendering:auto;image-rendering:auto;shape-rendering:auto;text-rendering:auto;enable-background:accumulate;stop-color:#000000;stop-opacity:1;stroke:none;"
           d="m 255.15195,244.80196 c -18.60438,-6.57895 -44.5999,-10.97783 -57.93456,-9.8035 l -7.06544,0.62223 -22.62697,-39.48805 -22.62698,-39.48805 3.80221,-6.55397 c 12.0671,-20.80039 25.24013,-36.15364 35.636,-41.53398 3.68915,-1.9093 10.02379,-1.31209 15.49609,1.46094 3.3516,1.69838 8.42307,6.08752 14.71676,12.73673 26.57745,28.07876 32.14261,32.48884 42.22027,33.45718 4.58645,0.4407 4.8989,0.29365 9.80864,-4.61608 8.4419,-8.4419 18.37179,-14.17598 25.12066,-14.5061 l 3.33498,-0.16312 10.22429,31.5 c 9.00733,27.75066 10.03392,31.61903 8.62482,32.5 -4.60248,2.87749 -11.20389,10.0627 -20.11133,21.8899 -14.03316,18.63307 -21.21045,24.73972 -28.83732,24.53567 -1.53017,-0.0409 -5.93212,-1.18835 -9.78212,-2.5498 z"
           id="path3389" />
        <path
           style="color:#000000;font-style:normal;font-variant:normal;font-weight:normal;font-stretch:normal;font-size:medium;line-height:normal;font-family:sans-serif;font-variant-ligatures:normal;font-variant-position:normal;font-variant-caps:normal;font-variant-numeric:normal;font-variant-alternates:normal;font-variant-east-asian:normal;font-feature-settings:normal;font-variation-settings:normal;text-indent:0;text-align:start;text-decoration:none;text-decoration-line:none;text-decoration-style:solid;text-decoration-color:#000000;letter-spacing:normal;word-spacing:normal;text-transform:none;writing-mode:lr-tb;direction:ltr;text-orientation:mixed;dominant-baseline:auto;baseline-shift:baseline;text-anchor:start;white-space:normal;shape-padding:0;shape-margin:0;inline-size:0;clip-rule:nonzero;display:inline;overflow:visible;visibility:visible;isolation:auto;mix-blend-mode:normal;color-interpolation:sRGB;color-interpolation-filters:linearRGB;solid-color:#000000;solid-opacity:1;vector-effect:none;fill-opacity:1;fill-rule:nonzero;stroke-width:0;stroke-linecap:butt;stroke-linejoin:miter;stroke-miterlimit:4;stroke-dasharray:none;stroke-dashoffset:0;stroke-opacity:1.0;color-rendering:auto;image-rendering:auto;shape-rendering:auto;text-rendering:auto;enable-background:accumulate;stop-color:#000000;stop-opacity:1;stroke:none;"
           d="M 191.41797 107.51562 C 188.68691 107.25809 186.17662 107.58629 184.32812 108.54297 C 173.92612 113.92648 160.75347 129.28023 148.68555 150.08203 L 144.87891 156.64453 L 167.51172 196.14062 L 190.14258 235.63672 L 197.21875 235.01367 C 210.54812 233.83981 236.54441 238.23827 255.14648 244.81641 C 257.07196 245.4973 259.13471 246.12561 260.9082 246.58789 C 262.6817 247.05017 264.16492 247.34664 264.93359 247.36719 C 268.75143 247.46933 272.45736 245.99194 276.96094 242.16016 C 281.46452 238.32838 286.76634 232.14308 293.7832 222.82617 C 302.69023 210.99952 309.29247 203.81424 313.89062 200.93945 C 314.06936 200.82771 314.21052 200.66714 314.30078 200.41992 C 314.39104 200.17271 314.43158 199.84024 314.41211 199.37891 C 314.37318 198.45624 314.09552 197.02151 313.49219 194.74805 C 312.28553 190.20113 309.77711 182.29724 305.27344 168.42188 L 295.04492 136.91016 L 291.69727 137.07422 C 284.94013 137.40474 275.01018 143.14021 266.56641 151.58398 C 264.1116 154.03879 262.806 155.30105 261.54492 155.89453 C 260.28384 156.48801 259.06451 156.41564 256.77148 156.19531 C 251.73468 155.71134 247.82909 154.36893 241.85742 149.63672 C 235.88575 144.90451 227.84918 136.78342 214.56055 122.74414 C 208.26632 116.09437 203.19555 111.70437 199.83984 110.00391 C 197.10189 108.61648 194.14902 107.77316 191.41797 107.51562 z M 191.41406 107.54688 C 194.14069 107.80388 197.08988 108.64565 199.82422 110.03125 C 203.17171 111.72755 208.24395 116.11698 214.53711 122.76562 C 227.82593 136.80511 235.86125 144.92751 241.83594 149.66211 C 247.81062 154.39671 251.72673 155.7422 256.76758 156.22656 C 259.06101 156.44693 260.2894 156.52113 261.55859 155.92383 C 262.82779 155.32653 264.13491 154.06235 266.58984 151.60742 C 275.02987 143.1674 284.95861 137.43518 291.69922 137.10547 L 295.02148 136.94336 L 305.24219 168.43164 C 309.74584 182.30693 312.25474 190.21068 313.46094 194.75586 C 314.06404 197.02845 314.34214 198.46127 314.38086 199.37891 C 314.40022 199.83773 314.35961 200.16879 314.27148 200.41016 C 314.18336 200.65152 314.04854 200.80361 313.875 200.91211 C 309.2682 203.7923 302.66566 210.97889 293.75781 222.80664 C 286.74152 232.1228 281.43953 238.30597 276.93945 242.13477 C 272.43938 245.96357 268.74263 247.43784 264.93359 247.33594 C 264.17209 247.31558 262.68854 247.01867 260.91602 246.55664 C 259.14349 246.09461 257.08273 245.46767 255.1582 244.78711 C 236.55152 238.20734 210.55675 233.80763 197.2168 234.98242 L 190.16016 235.60352 L 167.53906 196.125 L 144.91602 156.64453 L 148.71484 150.09961 C 160.78112 129.30064 173.95401 113.94748 184.34375 108.57031 C 186.1844 107.61769 188.68743 107.28987 191.41406 107.54688 z "
           id="path3391" />
      </g>
      <g
         id="g3393"
         transform="scale(0.26458333)"
         style="opacity:1">
        <path
           style="color:#000000;font-style:normal;font-variant:normal;font-weight:normal;font-stretch:normal;font-size:medium;line-height:normal;font-family:sans-serif;font-variant-ligatures:normal;font-variant-position:normal;font-variant-caps:normal;font-variant-numeric:normal;font-variant-alternates:normal;font-variant-east-asian:normal;font-feature-settings:normal;font-variation-settings:normal;text-indent:0;text-align:start;text-decoration:none;text-decoration-line:none;text-decoration-style:solid;text-decoration-color:#000000;letter-spacing:normal;word-spacing:normal;text-transform:none;writing-mode:lr-tb;direction:ltr;text-orientation:mixed;dominant-baseline:auto;baseline-shift:baseline;text-anchor:start;white-space:normal;shape-padding:0;shape-margin:0;inline-size:0;clip-rule:nonzero;display:inline;overflow:visible;visibility:visible;isolation:auto;mix-blend-mode:normal;color-interpolation:sRGB;color-interpolation-filters:linearRGB;solid-color:#000000;solid-opacity:1;vector-effect:none;fill:#d4ff2a;fill-opacity:1;fill-rule:nonzero;stroke-width:0;stroke-linecap:butt;stroke-linejoin:miter;stroke-miterlimit:4;stroke-dasharray:none;stroke-dashoffset:0;stroke-opacity:1.0;color-rendering:auto;image-rendering:auto;shape-rendering:auto;text-rendering:auto;enable-background:accumulate;stop-color:#000000;stop-opacity:1;stroke:none;"
           d="m 334.11457,203.69969 c -4.26791,-2.80053 -7.38118,-3.95591 -11.14543,-4.13624 -1.75476,-0.0841 -3.75215,0.002 -4.43865,0.19179 l -1.24818,0.34464 -10.19703,-31.68383 c -5.60836,-17.4261 -10.27846,-31.9873 -10.37799,-32.35822 -0.17284,-0.64411 -0.008,-0.66324 3.67553,-0.4259 11.45404,0.73806 21.80887,5.20761 33.52341,14.47004 6.8307,5.40089 16.60039,15.75989 23.87084,25.31076 l 2.05158,2.69506 -11.35444,13.67466 c -6.24494,7.52106 -11.43398,13.67073 -11.53121,13.66593 -0.0972,-0.005 -1.37002,-0.79171 -2.82843,-1.74869 z"
           id="path3395" />
        <path
           style="color:#000000;font-style:normal;font-variant:normal;font-weight:normal;font-stretch:normal;font-size:medium;line-height:normal;font-family:sans-serif;font-variant-ligatures:normal;font-variant-position:normal;font-variant-caps:normal;font-variant-numeric:normal;font-variant-alternates:normal;font-variant-east-asian:normal;font-feature-settings:normal;font-variation-settings:normal;text-indent:0;text-align:start;text-decoration:none;text-decoration-line:none;text-decoration-style:solid;text-decoration-color:#000000;letter-spacing:normal;word-spacing:normal;text-transform:none;writing-mode:lr-tb;direction:ltr;text-orientation:mixed;dominant-baseline:auto;baseline-shift:baseline;text-anchor:start;white-space:normal;shape-padding:0;shape-margin:0;inline-size:0;clip-rule:nonzero;display:inline;overflow:visible;visibility:visible;isolation:auto;mix-blend-mode:normal;color-interpolation:sRGB;color-interpolation-filters:linearRGB;solid-color:#000000;solid-opacity:1;vector-effect:none;fill-opacity:1;fill-rule:nonzero;stroke-width:0;stroke-linecap:butt;stroke-linejoin:miter;stroke-miterlimit:4;stroke-dasharray:none;stroke-dashoffset:0;stroke-opacity:1.0;color-rendering:auto;image-rendering:auto;shape-rendering:auto;text-rendering:auto;enable-background:accumulate;stop-color:#000000;stop-opacity:1;stroke:none;"
           d="M 297.09766 135.49805 C 296.97674 135.51206 296.88462 135.53313 296.81641 135.5625 C 296.74819 135.59187 296.70212 135.62979 296.67578 135.67773 C 296.62311 135.77361 296.64803 135.90084 296.69141 136.0625 C 296.70451 136.11134 296.78736 136.37799 296.93555 136.8457 C 297.08373 137.31342 297.29668 137.97943 297.56641 138.82422 C 298.10586 140.51379 298.87395 142.91324 299.81445 145.8457 C 301.69547 151.71064 304.26613 159.70882 307.07031 168.42188 L 317.27148 200.11914 L 318.53516 199.77148 C 318.87516 199.67749 319.54563 199.60698 320.34961 199.57227 C 321.15359 199.53755 322.09192 199.53805 322.96875 199.58008 C 326.73016 199.76027 329.83886 200.91321 334.10547 203.71289 C 334.83478 204.19145 335.51842 204.62828 336.03125 204.94531 C 336.28767 205.10383 336.5002 205.2327 336.65625 205.32227 C 336.73428 205.36705 336.79832 205.4017 336.8457 205.42578 C 336.8694 205.43782 336.88867 205.4466 336.9043 205.45312 C 336.91992 205.45965 336.9304 205.46428 336.94141 205.46484 C 336.94179 205.46486 336.94868 205.46306 336.94922 205.46289 C 336.94975 205.46272 336.95185 205.46159 336.95312 205.46094 C 336.95567 205.45963 336.95853 205.45879 336.96094 205.45703 C 336.96576 205.45351 336.97184 205.44944 336.97852 205.44336 C 336.99186 205.43119 337.00869 205.41211 337.03125 205.38867 C 337.07638 205.34179 337.1409 205.27291 337.22266 205.18164 C 337.38618 204.99911 337.62103 204.72954 337.91992 204.38281 C 338.51771 203.68936 339.37098 202.68576 340.41602 201.44727 C 342.50609 198.97027 345.36384 195.55353 348.48633 191.79297 L 359.84961 178.10742 L 357.78906 175.40234 C 350.51781 165.85041 340.7487 155.4923 333.91602 150.08984 C 322.19984 140.82612 311.84232 136.35352 300.38477 135.61523 C 298.54296 135.49656 297.58132 135.442 297.09766 135.49805 z M 297.10156 135.5293 C 297.57799 135.47409 298.53914 135.52977 300.38086 135.64844 C 311.83138 136.38627 322.18358 140.8541 333.89648 150.11523 C 340.7252 155.51455 350.49403 165.87207 357.76367 175.42188 L 359.80859 178.10742 L 348.46094 191.77148 C 345.33849 195.53199 342.48062 198.95083 340.39062 201.42773 C 339.34563 202.66619 338.49218 203.66999 337.89453 204.36328 C 337.5957 204.70993 337.36248 204.97792 337.19922 205.16016 C 337.11759 205.25128 337.05243 205.32084 337.00781 205.36719 C 336.98551 205.39036 336.96941 205.40864 336.95703 205.41992 C 336.95134 205.42511 336.94653 205.42925 336.94336 205.43164 C 336.94328 205.43164 336.94158 205.43167 336.94141 205.43164 C 336.9391 205.43124 336.93137 205.42942 336.91797 205.42383 C 336.90356 205.41781 336.88459 205.4083 336.86133 205.39648 C 336.8148 205.37284 336.75159 205.3376 336.67383 205.29297 C 336.51831 205.20371 336.30311 205.07638 336.04688 204.91797 C 335.5344 204.60115 334.85215 204.16397 334.12305 203.68555 C 329.85384 200.88417 326.73779 199.72734 322.9707 199.54688 C 322.09277 199.5048 321.15269 199.50626 320.34766 199.54102 C 319.54262 199.57577 318.87188 199.64444 318.52539 199.74023 L 317.29297 200.08008 L 307.09961 168.41211 C 304.29543 159.69906 301.72671 151.70086 299.8457 145.83594 C 298.9052 142.90348 298.1371 140.504 297.59766 138.81445 C 297.32793 137.96968 297.11497 137.30361 296.9668 136.83594 C 296.81863 136.36827 296.73443 136.09663 296.72266 136.05273 C 296.67962 135.89234 296.66034 135.7748 296.70508 135.69336 C 296.72745 135.65264 296.76635 135.61923 296.83008 135.5918 C 296.8938 135.56436 296.98246 135.5431 297.10156 135.5293 z "
           id="path3397" />
      </g>
      <g
         id="g3399"
         transform="scale(0.26458333)"
         style="opacity:1">
        <path
           style="color:#000000;font-style:normal;font-variant:normal;font-weight:normal;font-stretch:normal;font-size:medium;line-height:normal;font-family:sans-serif;font-variant-ligatures:normal;font-variant-position:normal;font-variant-caps:normal;font-variant-numeric:normal;font-variant-alternates:normal;font-variant-east-asian:normal;font-feature-settings:normal;font-variation-settings:normal;text-indent:0;text-align:start;text-decoration:none;text-decoration-line:none;text-decoration-style:solid;text-decoration-color:#000000;letter-spacing:normal;word-spacing:normal;text-transform:none;writing-mode:lr-tb;direction:ltr;text-orientation:mixed;dominant-baseline:auto;baseline-shift:baseline;text-anchor:start;white-space:normal;shape-padding:0;shape-margin:0;inline-size:0;clip-rule:nonzero;display:inline;overflow:visible;visibility:visible;isolation:auto;mix-blend-mode:normal;color-interpolation:sRGB;color-interpolation-filters:linearRGB;solid-color:#000000;solid-opacity:1;vector-effect:none;fill:#2a7fff;fill-opacity:1;fill-rule:nonzero;stroke-width:0;stroke-linecap:butt;stroke-linejoin:miter;stroke-miterlimit:4;stroke-dasharray:none;stroke-dashoffset:0;stroke-opacity:1.0;color-rendering:auto;image-rendering:auto;shape-rendering:auto;text-rendering:auto;enable-background:accumulate;stop-color:#000000;stop-opacity:1;stroke:none;"
           d="m 336.82545,393.02991 c -0.40817,-4.32305 -0.2479,-15.6999 0.31089,-22.06856 0.99833,-11.37821 2.4958,-21.47697 7.23477,-48.79037 6.32086,-36.43072 7.99394,-49.57197 8.37237,-65.76093 0.39297,-16.81096 -1.45779,-28.45491 -6.04105,-38.00699 -1.84913,-3.8538 -5.01262,-8.44322 -7.39953,-10.73483 l -1.23833,-1.18888 11.16479,-13.39519 c 6.14064,-7.36736 11.30261,-13.39519 11.47106,-13.39519 0.16845,0 2.27135,2.9831 4.67312,6.62912 13.89882,21.09916 25.97915,46.64165 35.16776,74.35821 l 1.82458,5.50368 -29.12997,57.6056 c -16.02148,31.68307 -30.7161,60.77474 -32.65472,64.64814 l -3.52476,7.04254 z"
           id="path3401" />
        <path
           style="color:#000000;font-style:normal;font-variant:normal;font-weight:normal;font-stretch:normal;font-size:medium;line-height:normal;font-family:sans-serif;font-variant-ligatures:normal;font-variant-position:normal;font-variant-caps:normal;font-variant-numeric:normal;font-variant-alternates:normal;font-variant-east-asian:normal;font-feature-settings:normal;font-variation-settings:normal;text-indent:0;text-align:start;text-decoration:none;text-decoration-line:none;text-decoration-style:solid;text-decoration-color:#000000;letter-spacing:normal;word-spacing:normal;text-transform:none;writing-mode:lr-tb;direction:ltr;text-orientation:mixed;dominant-baseline:auto;baseline-shift:baseline;text-anchor:start;white-space:normal;shape-padding:0;shape-margin:0;inline-size:0;clip-rule:nonzero;display:inline;overflow:visible;visibility:visible;isolation:auto;mix-blend-mode:normal;color-interpolation:sRGB;color-interpolation-filters:linearRGB;solid-color:#000000;solid-opacity:1;vector-effect:none;fill-opacity:1;fill-rule:nonzero;stroke-width:0;stroke-linecap:butt;stroke-linejoin:miter;stroke-miterlimit:4;stroke-dasharray:none;stroke-dashoffset:0;stroke-opacity:1.0;color-rendering:auto;image-rendering:auto;shape-rendering:auto;text-rendering:auto;enable-background:accumulate;stop-color:#000000;stop-opacity:1;stroke:none;"
           d="M 360.69531 179.67383 C 360.69359 179.67422 360.69098 179.6752 360.68945 179.67578 C 360.6864 179.67695 360.68469 179.67793 360.68164 179.67969 C 360.67555 179.68321 360.66796 179.68727 360.66016 179.69336 C 360.64455 179.70555 360.62409 179.72293 360.59961 179.74609 C 360.55064 179.79243 360.48318 179.86145 360.39844 179.95117 C 360.22896 180.13062 359.9913 180.3942 359.68945 180.73438 C 359.08577 181.41473 358.23101 182.3993 357.19141 183.61328 C 355.11221 186.04124 352.28715 189.39049 349.2168 193.07422 L 338.04297 206.48047 L 339.29102 207.67969 C 341.67532 209.9688 344.83931 214.55831 346.6875 218.41016 C 351.26929 227.95918 353.1195 239.60054 352.72656 256.41016 C 352.34815 272.59822 350.6763 285.73742 344.35547 322.16797 C 339.61648 349.48146 338.11947 359.58021 337.12109 370.95898 C 336.56218 377.32903 336.40014 388.70519 336.80859 393.03125 L 337.04492 395.5332 L 340.5957 388.44141 C 342.53419 384.56827 357.22852 355.47603 373.25 323.79297 L 402.38281 266.18164 L 400.55664 260.67188 C 391.36764 232.95413 379.28646 207.40915 365.38672 186.30859 C 364.18576 184.48547 363.06004 182.82868 362.21289 181.62695 C 361.78932 181.02609 361.43439 180.54007 361.17578 180.20312 C 361.04648 180.03465 360.94205 179.90366 360.86328 179.81445 C 360.8239 179.76985 360.79167 179.7344 360.76562 179.71094 C 360.7526 179.69921 360.74064 179.6901 360.73047 179.68359 C 360.7203 179.67708 360.71234 179.67383 360.70117 179.67383 C 360.70051 179.67383 360.69703 179.67344 360.69531 179.67383 z M 360.70117 179.70508 C 360.70053 179.70508 360.70508 179.70594 360.71289 179.71094 C 360.7207 179.71594 360.73192 179.72337 360.74414 179.73438 C 360.76858 179.75639 360.80091 179.7899 360.83984 179.83398 C 360.9177 179.92216 361.02133 180.0545 361.15039 180.22266 C 361.40851 180.55898 361.76212 181.04387 362.18555 181.64453 C 363.03241 182.84585 364.15857 184.50328 365.35938 186.32617 C 379.25727 207.42393 391.33717 232.96627 400.52539 260.68164 L 402.34766 266.17773 L 373.2207 323.7793 C 357.19922 355.46237 342.50516 384.55212 340.56641 388.42578 L 337.06641 395.41992 L 336.8418 393.0293 C 336.43391 388.70925 336.59368 377.33016 337.15234 370.96289 C 338.15062 359.58525 339.64777 349.48713 344.38672 322.17383 C 350.70761 285.74294 352.38131 272.60002 352.75977 256.41016 C 353.15277 239.59785 351.30152 227.95162 346.7168 218.39648 C 344.86673 214.54073 341.70397 209.95036 339.31445 207.65625 L 338.08594 206.47852 L 349.24219 193.09375 C 352.31247 189.41012 355.13774 186.06256 357.2168 183.63477 C 358.25633 182.42087 359.10944 181.43595 359.71289 180.75586 C 360.01462 180.41581 360.25283 180.15164 360.42188 179.97266 C 360.5064 179.88317 360.5749 179.81509 360.62305 179.76953 C 360.64712 179.74675 360.66551 179.72982 360.67969 179.71875 C 360.68678 179.71321 360.69325 179.70936 360.69727 179.70703 C 360.69928 179.70587 360.70038 179.70538 360.70117 179.70508 z "
           id="path3403" />
      </g>
      <g
         id="g3405"
         transform="scale(0.26458333)"
         style="opacity:1">
        <path
           style="color:#000000;font-style:normal;font-variant:normal;font-weight:normal;font-stretch:normal;font-size:medium;line-height:normal;font-family:sans-serif;font-variant-ligatures:normal;font-variant-position:normal;font-variant-caps:normal;font-variant-numeric:normal;font-variant-alternates:normal;font-variant-east-asian:normal;font-feature-settings:normal;font-variation-settings:normal;text-indent:0;text-align:start;text-decoration:none;text-decoration-line:none;text-decoration-style:solid;text-decoration-color:#000000;letter-spacing:normal;word-spacing:normal;text-transform:none;writing-mode:lr-tb;direction:ltr;text-orientation:mixed;dominant-baseline:auto;baseline-shift:baseline;text-anchor:start;white-space:normal;shape-padding:0;shape-margin:0;inline-size:0;clip-rule:nonzero;display:inline;overflow:visible;visibility:visible;isolation:auto;mix-blend-mode:normal;color-interpolation:sRGB;color-interpolation-filters:linearRGB;solid-color:#000000;solid-opacity:1;vector-effect:none;fill:#ff00cc;fill-opacity:1;fill-rule:nonzero;stroke-width:0;stroke-linecap:butt;stroke-linejoin:miter;stroke-miterlimit:4;stroke-dasharray:none;stroke-dashoffset:0;stroke-opacity:1.0;color-rendering:auto;image-rendering:auto;shape-rendering:auto;text-rendering:auto;enable-background:accumulate;stop-color:#000000;stop-opacity:1;stroke:none;"
           d="m 359.74719,421.46306 c -11.7091,-0.85813 -18.84158,-7.82939 -21.88427,-21.38958 l -0.48856,-2.17735 32.66113,-64.61112 c 17.96362,-35.53612 32.73104,-64.68104 32.8165,-64.7665 0.36529,-0.36528 4.61225,15.3063 6.68311,24.66109 2.8314,12.79047 4.64721,24.08358 5.77003,35.88567 0.75165,7.90072 0.85747,26.64693 0.18461,32.70369 -1.90507,17.14855 -5.77405,29.57337 -12.28309,39.44588 -2.45568,3.72464 -8.852,10.32494 -12.14012,12.52729 -8.60493,5.76348 -19.93083,8.55557 -31.31934,7.72093 z"
           id="path3407" />
        <path
           style="color:#000000;font-style:normal;font-variant:normal;font-weight:normal;font-stretch:normal;font-size:medium;line-height:normal;font-family:sans-serif;font-variant-ligatures:normal;font-variant-position:normal;font-variant-caps:normal;font-variant-numeric:normal;font-variant-alternates:normal;font-variant-east-asian:normal;font-feature-settings:normal;font-variation-settings:normal;text-indent:0;text-align:start;text-decoration:none;text-decoration-line:none;text-decoration-style:solid;text-decoration-color:#000000;letter-spacing:normal;word-spacing:normal;text-transform:none;writing-mode:lr-tb;direction:ltr;text-orientation:mixed;dominant-baseline:auto;baseline-shift:baseline;text-anchor:start;white-space:normal;shape-padding:0;shape-margin:0;inline-size:0;clip-rule:nonzero;display:inline;overflow:visible;visibility:visible;isolation:auto;mix-blend-mode:normal;color-interpolation:sRGB;color-interpolation-filters:linearRGB;solid-color:#000000;solid-opacity:1;vector-effect:none;fill-opacity:1;fill-rule:nonzero;stroke-width:0;stroke-linecap:butt;stroke-linejoin:miter;stroke-miterlimit:4;stroke-dasharray:none;stroke-dashoffset:0;stroke-opacity:1.0;color-rendering:auto;image-rendering:auto;shape-rendering:auto;text-rendering:auto;enable-background:accumulate;stop-color:#000000;stop-opacity:1;stroke:none;"
           d="M 402.87695 268.49805 C 402.86483 268.49479 402.84876 268.49889 402.83984 268.50781 C 402.83951 268.50815 402.83692 268.51019 402.83594 268.51172 C 402.83496 268.51325 402.83528 268.51536 402.83398 268.51758 C 402.8314 268.52201 402.82849 268.52737 402.82422 268.53516 C 402.81568 268.55073 402.80263 268.57411 402.78711 268.60352 C 402.75607 268.66233 402.71097 268.74789 402.65234 268.86133 C 402.53508 269.0882 402.36416 269.42406 402.14062 269.86133 C 401.69355 270.73587 401.03975 272.02011 400.20117 273.66992 C 398.52402 276.96954 396.10681 281.73014 393.13281 287.59961 C 387.18482 299.33854 379.0033 315.50928 370.02148 333.27734 L 337.35742 397.89453 L 337.84766 400.07617 C 339.36946 406.8583 341.91498 411.99508 345.54492 415.54297 C 349.17486 419.09086 353.88863 421.04924 359.74609 421.47852 C 371.13797 422.3134 382.46783 419.52162 391.07617 413.75586 C 394.3686 411.55062 400.76278 404.95266 403.2207 401.22461 C 409.73154 391.34938 413.60062 378.92155 415.50586 361.77148 C 416.17914 355.71094 416.07218 336.96741 415.32031 329.06445 C 414.19743 317.2617 412.3823 305.96678 409.55078 293.17578 C 408.51526 288.49797 406.93663 282.24102 405.57031 277.19922 C 404.88715 274.67832 404.25541 272.46277 403.77344 270.89844 C 403.53245 270.11627 403.32919 269.49643 403.17383 269.08398 C 403.09615 268.87776 403.03087 268.72327 402.97852 268.625 C 402.95234 268.57587 402.92921 268.54099 402.9082 268.51953 C 402.8977 268.5088 402.88907 268.5013 402.87695 268.49805 z M 402.86328 268.5293 C 402.86578 268.5268 402.86415 268.52848 402.86719 268.5293 C 402.87023 268.53011 402.87841 268.53252 402.88672 268.54102 C 402.90334 268.558 402.92567 268.59276 402.95117 268.64062 C 403.00217 268.73636 403.06708 268.8901 403.14453 269.0957 C 403.29943 269.50692 403.50325 270.1244 403.74414 270.90625 C 404.22592 272.46994 404.85596 274.6883 405.53906 277.20898 C 406.90526 282.25035 408.48419 288.50661 409.51953 293.18359 C 412.35081 305.97353 414.16631 317.26498 415.28906 329.06641 C 416.0405 336.96489 416.14705 355.7146 415.47461 361.76758 C 413.56971 378.91461 409.70061 391.33529 403.19336 401.20508 C 400.73993 404.92631 394.3424 411.52905 391.05859 413.72852 C 382.45707 419.48971 371.13319 422.28166 359.74805 421.44727 C 353.89641 421.01841 349.19065 419.06185 345.56641 415.51953 C 341.94216 411.97721 339.39979 406.84837 337.87891 400.07031 L 337.39062 397.89844 L 370.04883 333.29297 C 379.03064 315.52491 387.21412 299.35416 393.16211 287.61523 C 396.1361 281.74577 398.55138 276.98319 400.22852 273.68359 C 401.06709 272.0338 401.72092 270.7495 402.16797 269.875 C 402.39149 269.43775 402.56442 269.10375 402.68164 268.87695 C 402.74025 268.76356 402.78545 268.6778 402.81641 268.61914 C 402.83188 268.58981 402.84318 268.56608 402.85156 268.55078 C 402.85575 268.54313 402.85901 268.53718 402.86133 268.5332 C 402.86249 268.53121 402.8627 268.5302 402.86328 268.5293 z "
           id="path3409" />
      </g>
      <g
         id="g3411"
         transform="scale(0.26458333)"
         style="opacity:1">
        <path
           style="color:#000000;font-style:normal;font-variant:normal;font-weight:normal;font-stretch:normal;font-size:medium;line-height:normal;font-family:sans-serif;font-variant-ligatures:normal;font-variant-position:normal;font-variant-caps:normal;font-variant-numeric:normal;font-variant-alternates:normal;font-variant-east-asian:normal;font-feature-settings:normal;font-variation-settings:normal;text-indent:0;text-align:start;text-decoration:none;text-decoration-line:none;text-decoration-style:solid;text-decoration-color:#000000;letter-spacing:normal;word-spacing:normal;text-transform:none;writing-mode:lr-tb;direction:ltr;text-orientation:mixed;dominant-baseline:auto;baseline-shift:baseline;text-anchor:start;white-space:normal;shape-padding:0;shape-margin:0;inline-size:0;clip-rule:nonzero;display:inline;overflow:visible;visibility:visible;isolation:auto;mix-blend-mode:normal;color-interpolation:sRGB;color-interpolation-filters:linearRGB;solid-color:#000000;solid-opacity:1;vector-effect:none;fill:#ffd42a;fill-opacity:1;fill-rule:nonzero;stroke-width:0;stroke-linecap:butt;stroke-linejoin:miter;stroke-miterlimit:4;stroke-dasharray:none;stroke-dashoffset:0;stroke-opacity:1.0;color-rendering:auto;image-rendering:auto;shape-rendering:auto;text-rendering:auto;enable-background:accumulate;stop-color:#000000;stop-opacity:1;stroke:none;"
           d="m 142.31186,422.0964 c -8.58357,-2.79427 -18.21404,-9.28603 -24.56215,-16.55701 -13.11986,-15.02717 -20.025529,-36.4072 -21.206809,-65.65655 -1.826039,-45.21408 12.200069,-106.44386 36.837409,-160.81051 1.78393,-3.93656 3.36188,-7.03899 3.50657,-6.89429 0.14468,0.14469 9.31604,15.48068 20.38079,34.07998 l 20.11773,33.81689 -1.79388,0.83134 c -3.19013,1.4784 -6.89799,4.126 -10.09675,7.20962 -15.80449,15.23556 -20.41499,42.29586 -15.20768,89.25791 0.39889,3.5974 1.748,14.18724 2.99803,23.53297 4.27735,31.97929 4.99064,40.63858 4.04632,49.12225 -0.71767,6.44755 -2.51263,10.27889 -5.60377,11.9613 -2.28345,1.24281 -5.80221,1.28246 -9.41581,0.1061 z"
           id="path3413" />
        <path
           style="color:#000000;font-style:normal;font-variant:normal;font-weight:normal;font-stretch:normal;font-size:medium;line-height:normal;font-family:sans-serif;font-variant-ligatures:normal;font-variant-position:normal;font-variant-caps:normal;font-variant-numeric:normal;font-variant-alternates:normal;font-variant-east-asian:normal;font-feature-settings:normal;font-variation-settings:normal;text-indent:0;text-align:start;text-decoration:none;text-decoration-line:none;text-decoration-style:solid;text-decoration-color:#000000;letter-spacing:normal;word-spacing:normal;text-transform:none;writing-mode:lr-tb;direction:ltr;text-orientation:mixed;dominant-baseline:auto;baseline-shift:baseline;text-anchor:start;white-space:normal;shape-padding:0;shape-margin:0;inline-size:0;clip-rule:nonzero;display:inline;overflow:visible;visibility:visible;isolation:auto;mix-blend-mode:normal;color-interpolation:sRGB;color-interpolation-filters:linearRGB;solid-color:#000000;solid-opacity:1;vector-effect:none;fill-opacity:1;fill-rule:nonzero;stroke-width:0;stroke-linecap:butt;stroke-linejoin:miter;stroke-miterlimit:4;stroke-dasharray:none;stroke-dashoffset:0;stroke-opacity:1.0;color-rendering:auto;image-rendering:auto;shape-rendering:auto;text-rendering:auto;enable-background:accumulate;stop-color:#000000;stop-opacity:1;stroke:none;"
           d="M 136.86523 172.1582 C 136.85422 172.16084 136.84498 172.16711 136.83398 172.17578 C 136.812 172.19313 136.7865 172.22186 136.75586 172.26172 C 136.69458 172.34143 136.61387 172.46653 136.51562 172.63281 C 136.31914 172.96538 136.05224 173.46293 135.73438 174.08789 C 135.09864 175.33781 134.25728 177.09795 133.36523 179.06641 C 108.72697 233.43509 94.701148 294.66485 96.527344 339.88281 C 97.708713 369.13436 104.61531 390.52004 117.73828 405.55078 C 124.08856 412.82425 133.71948 419.31589 142.30664 422.11133 C 145.92325 423.28867 149.44499 423.24995 151.73438 422.00391 C 154.83219 420.31786 156.62974 416.48102 157.34766 410.03125 C 158.29221 401.54551 157.57815 392.88373 153.30078 360.9043 C 152.05076 351.55864 150.70157 340.96798 150.30273 337.37109 C 145.09561 290.41074 149.70707 263.35702 165.50586 248.12695 C 168.70347 245.04444 172.40985 242.39725 175.59766 240.91992 L 177.4082 240.08203 L 157.28125 206.25 C 151.74887 196.95034 146.69012 188.46607 142.99609 182.28906 C 141.14908 179.20056 139.64291 176.68819 138.58984 174.93945 C 138.06331 174.06508 137.64955 173.38167 137.36328 172.91211 C 137.22015 172.67733 137.10913 172.49599 137.03125 172.37109 C 136.99231 172.30864 136.96148 172.26054 136.93945 172.22656 C 136.92844 172.20958 136.92085 172.19735 136.91406 172.1875 C 136.90727 172.17765 136.90321 172.17079 136.89844 172.16602 C 136.8901 172.15768 136.87625 172.15556 136.86523 172.1582 z M 136.87305 172.18945 C 136.87305 172.18945 136.875 172.18945 136.875 172.18945 C 136.87475 172.1892 136.88023 172.19566 136.88672 172.20508 C 136.89321 172.2145 136.90314 172.2273 136.91406 172.24414 C 136.9359 172.27782 136.96502 172.32631 137.00391 172.38867 C 137.08167 172.5134 137.19283 172.69495 137.33594 172.92969 C 137.62214 173.39916 138.03598 174.08269 138.5625 174.95703 C 139.61553 176.70572 141.12175 179.21815 142.96875 182.30664 C 146.66276 188.48362 151.72154 196.96598 157.25391 206.26562 L 177.36133 240.06836 L 175.58398 240.89258 C 172.39153 242.37205 168.68429 245.01878 165.48438 248.10352 C 149.67419 263.34457 145.06399 290.41125 150.27148 337.375 C 150.67043 340.97291 152.01949 351.5624 153.26953 360.9082 C 157.54686 392.88735 158.2605 401.54574 157.31641 410.02734 C 156.59898 416.47267 154.80517 420.29779 151.7207 421.97656 C 149.44319 423.21614 145.927 423.25741 142.31641 422.08203 C 133.73642 419.28893 124.10766 412.79779 117.76172 405.5293 C 104.64497 390.5057 97.739785 369.12996 96.558594 339.88281 C 94.732712 294.67262 108.75811 233.44274 133.39453 179.07812 C 134.28642 177.11002 135.12632 175.35082 135.76172 174.10156 C 136.07942 173.47693 136.34714 172.97989 136.54297 172.64844 C 136.64088 172.48271 136.72157 172.35888 136.78125 172.28125 C 136.81109 172.24243 136.83562 172.21529 136.85352 172.20117 C 136.86246 172.19411 136.86949 172.1903 136.87305 172.18945 z "
           id="path3415" />
      </g>
      <g
         id="g3417"
         transform="scale(0.26458333)"
         style="opacity:1">
        <path
           style="color:#000000;font-style:normal;font-variant:normal;font-weight:normal;font-stretch:normal;font-size:medium;line-height:normal;font-family:sans-serif;font-variant-ligatures:normal;font-variant-position:normal;font-variant-caps:normal;font-variant-numeric:normal;font-variant-alternates:normal;font-variant-east-asian:normal;font-feature-settings:normal;font-variation-settings:normal;text-indent:0;text-align:start;text-decoration:none;text-decoration-line:none;text-decoration-style:solid;text-decoration-color:#000000;letter-spacing:normal;word-spacing:normal;text-transform:none;writing-mode:lr-tb;direction:ltr;text-orientation:mixed;dominant-baseline:auto;baseline-shift:baseline;text-anchor:start;white-space:normal;shape-padding:0;shape-margin:0;inline-size:0;clip-rule:nonzero;display:inline;overflow:visible;visibility:visible;isolation:auto;mix-blend-mode:normal;color-interpolation:sRGB;color-interpolation-filters:linearRGB;solid-color:#000000;solid-opacity:1;vector-effect:none;fill:#ff2a2a;fill-opacity:1;fill-rule:nonzero;stroke-width:0;stroke-linecap:butt;stroke-linejoin:miter;stroke-miterlimit:4;stroke-dasharray:none;stroke-dashoffset:0;stroke-opacity:1.0;color-rendering:auto;image-rendering:auto;shape-rendering:auto;text-rendering:auto;enable-background:accumulate;stop-color:#000000;stop-opacity:1;stroke:none;"
           d="m 158.05573,204.76996 -20.57653,-34.59725 3.08387,-6.01692 3.08387,-6.01692 7.95243,13.86864 c 20.58405,35.89753 32.81109,57.15818 34.74048,60.40751 1.1609,1.95509 2.11073,3.6737 2.11073,3.81912 0,0.14542 -0.88662,0.46281 -1.97026,0.70532 -1.08364,0.24251 -3.29276,0.88796 -4.90915,1.43434 l -2.9389,0.99341 z"
           id="path3419" />
        <path
           style="color:#000000;font-style:normal;font-variant:normal;font-weight:normal;font-stretch:normal;font-size:medium;line-height:normal;font-family:sans-serif;font-variant-ligatures:normal;font-variant-position:normal;font-variant-caps:normal;font-variant-numeric:normal;font-variant-alternates:normal;font-variant-east-asian:normal;font-feature-settings:normal;font-variation-settings:normal;text-indent:0;text-align:start;text-decoration:none;text-decoration-line:none;text-decoration-style:solid;text-decoration-color:#000000;letter-spacing:normal;word-spacing:normal;text-transform:none;writing-mode:lr-tb;direction:ltr;text-orientation:mixed;dominant-baseline:auto;baseline-shift:baseline;text-anchor:start;white-space:normal;shape-padding:0;shape-margin:0;inline-size:0;clip-rule:nonzero;display:inline;overflow:visible;visibility:visible;isolation:auto;mix-blend-mode:normal;color-interpolation:sRGB;color-interpolation-filters:linearRGB;solid-color:#000000;solid-opacity:1;vector-effect:none;fill-opacity:1;fill-rule:nonzero;stroke-width:0;stroke-linecap:butt;stroke-linejoin:miter;stroke-miterlimit:4;stroke-dasharray:none;stroke-dashoffset:0;stroke-opacity:1.0;color-rendering:auto;image-rendering:auto;shape-rendering:auto;text-rendering:auto;enable-background:accumulate;stop-color:#000000;stop-opacity:1;stroke:none;"
           d="M 143.64648 158.10547 L 140.54883 164.14844 L 137.46094 170.17383 L 158.04102 204.77734 L 178.625 239.38672 L 181.57617 238.38867 C 183.19199 237.84248 185.40212 237.19728 186.48438 236.95508 C 187.02674 236.8337 187.51894 236.69457 187.87695 236.56641 C 188.05596 236.50232 188.20143 236.43943 188.30273 236.38477 C 188.35339 236.35743 188.39401 236.33298 188.42188 236.30859 C 188.44974 236.28421 188.4668 236.26068 188.4668 236.23438 C 188.4668 236.22093 188.46254 236.2053 188.45508 236.18359 C 188.44761 236.16189 188.4361 236.13417 188.42188 236.10156 C 188.39342 236.03635 188.3525 235.94996 188.29883 235.84375 C 188.19149 235.63132 188.03509 235.34231 187.84375 234.99609 C 187.46107 234.30367 186.93404 233.38392 186.35352 232.40625 C 184.42462 229.15775 172.19733 207.89752 151.61328 172 L 143.64648 158.10547 z M 143.64844 158.17383 L 151.58594 172.01562 C 172.16999 207.91316 184.39629 229.17367 186.32617 232.42383 C 186.90655 233.40125 187.43395 234.31971 187.81641 235.01172 C 188.00763 235.35772 188.1625 235.64561 188.26953 235.85742 C 188.32305 235.96333 188.36455 236.05099 188.39258 236.11523 C 188.40659 236.14736 188.41681 236.17296 188.42383 236.19336 C 188.43084 236.21376 188.43555 236.22964 188.43555 236.23438 C 188.43555 236.24442 188.42524 236.26341 188.40039 236.28516 C 188.37554 236.30691 188.33651 236.33076 188.28711 236.35742 C 188.18831 236.41074 188.04529 236.4714 187.86719 236.53516 C 187.51098 236.66267 187.01784 236.80269 186.47656 236.92383 C 185.39154 237.16665 183.18336 237.8128 181.56641 238.35938 L 178.63867 239.34766 L 158.07031 204.76172 L 137.49805 170.17188 L 140.57812 164.16406 L 143.64844 158.17383 z "
           id="path3421" />
      </g>
    </g>
  </g>
</svg>
