<?xml version="1.0" encoding="UTF-8" standalone="no"?>
<svg
   xmlns:dc="http://purl.org/dc/elements/1.1/"
   xmlns:cc="http://creativecommons.org/ns#"
   xmlns:rdf="http://www.w3.org/1999/02/22-rdf-syntax-ns#"
   xmlns:svg="http://www.w3.org/2000/svg"
   xmlns="http://www.w3.org/2000/svg"
   xmlns:sodipodi="http://sodipodi.sourceforge.net/DTD/sodipodi-0.dtd"
   xmlns:inkscape="http://www.inkscape.org/namespaces/inkscape"
   width="512"
   height="512"
   viewBox="0 0 135.46666 135.46667"
   version="1.1"
   id="svg8"
   inkscape:version="1.0.2 (e86c870879, 2021-01-15)"
   sodipodi:docname="mlogo2.svg"
   inkscape:export-filename="/home/rodrigo/development_projects/Moedeiro/mlogo2.png"
   inkscape:export-xdpi="96"
   inkscape:export-ydpi="96">
  <defs
     id="defs2">
    <rect
       x="-140.53575"
       y="8.6353114"
       width="102.61667"
       height="133.21883"
       id="rect1452" />
    <rect
       x="-61.361325"
       y="12.78822"
       width="236.32995"
       height="117.26973"
       id="rect1428" />
    <rect
       x="189.57031"
       y="133.01775"
       width="178.84403"
       height="95.613585"
       id="rect1422" />
    <rect
       x="10.378619"
       y="19.730964"
       width="115.60973"
       height="107.02057"
       id="rect1404" />
    <filter
       style="color-interpolation-filters:sRGB;"
       inkscape:label="Drop Shadow"
       id="filter1690">
      <feFlood
         flood-opacity="0.498039"
         flood-color="rgb(0,0,0)"
         result="flood"
         id="feFlood1680" />
      <feComposite
         in="flood"
         in2="SourceGraphic"
         operator="out"
         result="composite1"
         id="feComposite1682" />
      <feGaussianBlur
         in="composite1"
         stdDeviation="24.7"
         result="blur"
         id="feGaussianBlur1684" />
      <feOffset
         dx="-5.7"
         dy="-2.64783"
         result="offset"
         id="feOffset1686" />
      <feComposite
         in="offset"
         in2="SourceGraphic"
         operator="atop"
         result="composite2"
         id="feComposite1688" />
    </filter>
  </defs>
  <sodipodi:namedview
     id="base"
     pagecolor="#ffffff"
     bordercolor="#666666"
     borderopacity="1.0"
     inkscape:pageopacity="0.0"
     inkscape:pageshadow="2"
     inkscape:zoom="0.3535534"
     inkscape:cx="-25.102291"
     inkscape:cy="221.32442"
     inkscape:document-units="mm"
     inkscape:current-layer="layer1"
     inkscape:document-rotation="0"
     showgrid="false"
     units="px"
     inkscape:window-width="1324"
     inkscape:window-height="731"
     inkscape:window-x="0"
     inkscape:window-y="0"
     inkscape:window-maximized="1"
     showguides="false"
     inkscape:pagecheckerboard="0">
    <inkscape:grid
       type="xygrid"
       id="grid872" />
  </sodipodi:namedview>
  <metadata
     id="metadata5">
    <rdf:RDF>
      <cc:Work
         rdf:about="">
        <dc:format>image/svg+xml</dc:format>
        <dc:type
           rdf:resource="http://purl.org/dc/dcmitype/StillImage" />
        <dc:title></dc:title>
      </cc:Work>
    </rdf:RDF>
  </metadata>
  <g
     inkscape:label="Capa 1"
     inkscape:groupmode="layer"
     id="layer1">
    <text
       xml:space="preserve"
       id="text1402"
       style="font-style:normal;font-weight:normal;font-size:88.1944px;line-height:0;font-family:sans-serif;white-space:pre;shape-inside:url(#rect1404);fill:#000000;fill-opacity:1;stroke:none;" />
    <text
       xml:space="preserve"
       id="text1420"
       style="fill:black;fill-opacity:1;line-height:1.25;stroke:none;font-family:sans-serif;font-style:normal;font-weight:normal;font-size:10.58333333px;white-space:pre;shape-inside:url(#rect1422);" />
    <text
       xml:space="preserve"
       id="text1426"
       style="fill:black;fill-opacity:1;line-height:1.25;stroke:none;font-family:sans-serif;font-style:normal;font-weight:normal;font-size:10.58333333px;white-space:pre;shape-inside:url(#rect1428);" />
    <path
       style="fill:#ff6600;stroke-width:0"
       d=""
       id="path1474"
       transform="scale(0.26458333)" />
    <path
       style="fill:#ff9955;stroke-width:0"
       d=""
       id="path1476"
       transform="scale(0.26458333)" />
    <path
       style="fill:#ff9955;stroke-width:0"
       d=""
       id="path1480"
       transform="scale(0.26458333)" />
    <path
       style="fill:#ff7f2a;stroke-width:0"
       d=""
       id="path1498"
       transform="scale(0.26458333)" />
    <text
       xml:space="preserve"
       id="text1450"
       style="font-style:normal;font-weight:normal;font-size:105.833px;line-height:1.25;font-family:sans-serif;white-space:pre;shape-inside:url(#rect1452);fill:#000000;fill-opacity:1;stroke:none;" />
    <path
       style="fill:#008080;stroke-width:0.1"
       d="m 60.523515,76.232931 c 0.03566,-0.07972 0.577469,-0.927602 1.20401,-1.88423 0.826138,-1.261348 1.882989,-2.45618 3.84605,-4.348199 2.548032,-2.455826 4.390929,-4.597551 4.383402,-5.094171 -0.0019,-0.121169 -0.272563,-0.40839 -0.60162,-0.638268 -0.329052,-0.229878 -1.698292,-1.413465 -3.042754,-2.630191 -1.344459,-1.216729 -3.008682,-2.638325 -3.698274,-3.159104 -2.315207,-1.748438 -4.772662,-2.543286 -6.809851,-2.202603 -2.253464,0.376854 -3.422642,1.030472 -6.019099,3.364933 -2.423419,2.178881 -4.156331,3.595521 -4.398242,3.595521 -0.111729,0 -2.216098,1.981415 -4.676373,4.40314 -2.460276,2.421726 -4.995013,4.842254 -5.632752,5.378961 -1.926725,1.621473 -4.734716,3.396985 -4.734716,2.993813 0,-0.100118 0.437457,-0.836083 0.97213,-1.635495 0.994896,-1.487488 6.466197,-6.972565 6.768621,-6.785658 0.150394,0.09295 5.623565,-5.35591 5.758587,-5.73301 0.133625,-0.373202 5.949699,-5.246402 7.468695,-6.257904 3.629986,-2.417217 6.062694,-2.595372 8.966015,-0.656605 0.653735,0.436543 2.599796,2.141402 4.324583,3.788568 5.039534,4.81275 5.682183,5.287103 6.787179,5.009767 0.254389,-0.06385 1.230085,-0.817214 2.16822,-1.674149 2.207041,-2.016014 5.293196,-4.064754 7.28776,-4.837969 1.869729,-0.724821 4.276789,-0.954546 5.951263,-0.567976 2.998316,0.692197 6.24124,2.847369 11.475645,7.62645 4.066666,3.712925 5.339616,4.672513 8.116656,6.118606 2.46891,1.28564 4.63714,2.654134 4.47,2.821297 -0.0557,0.05567 -0.73637,-0.09075 -1.51261,-0.325437 -4.51823,-1.365928 -7.93645,-3.556937 -13.006583,-8.336963 -5.280261,-4.97813 -8.036074,-6.547286 -11.498599,-6.547286 -2.504046,0 -5.036666,1.050515 -8.11666,3.366738 -2.006322,1.5088 -4.615233,3.964982 -4.340534,4.086437 0.110508,0.04886 1.632381,0.92583 3.381941,1.948822 1.749557,1.022991 3.797562,2.143824 4.551119,2.490743 2.957973,1.361765 7.240741,2.431994 11.09476,2.77246 1.801719,0.159174 1.776526,0.162666 -1.352775,0.187616 -4.6829,0.03736 -7.70549,-0.502523 -11.212952,-2.002798 -1.757325,-0.751678 -4.346443,-2.243219 -5.738722,-3.305971 -1.062144,-0.810752 -1.629934,-0.962454 -2.403311,-0.642109 -1.319417,0.546518 -2.806785,2.042292 -7.410662,7.452521 -0.74418,0.874527 -3.009228,2.395458 -2.769547,1.859703 z"
       id="path843"
       inkscape:export-filename="/home/rodrigo/development_projects/Dones/mlogo.png"
       inkscape:export-xdpi="96"
       inkscape:export-ydpi="96" />
  </g>
</svg>
