<?xml version="1.0" encoding="UTF-8" standalone="no"?>
<svg
   xmlns:dc="http://purl.org/dc/elements/1.1/"
   xmlns:cc="http://creativecommons.org/ns#"
   xmlns:rdf="http://www.w3.org/1999/02/22-rdf-syntax-ns#"
   xmlns:svg="http://www.w3.org/2000/svg"
   xmlns="http://www.w3.org/2000/svg"
   xmlns:sodipodi="http://sodipodi.sourceforge.net/DTD/sodipodi-0.dtd"
   xmlns:inkscape="http://www.inkscape.org/namespaces/inkscape"
   width="210mm"
   height="297mm"
   viewBox="0 0 210 297"
   version="1.1"
   id="svg8"
   inkscape:version="1.0.2 (e86c870879, 2021-01-15)"
   sodipodi:docname="mlogo.svg">
  <defs
     id="defs2">
    <clipPath
       clipPathUnits="userSpaceOnUse"
       id="clipPath1017">
      <rect
         style="fill:#2596be;stroke-width:0.1"
         id="rect1019"
         width="133.50653"
         height="55.485508"
         x="51.538734"
         y="60.132694" />
    </clipPath>
  </defs>
  <sodipodi:namedview
     id="base"
     pagecolor="#ffffff"
     bordercolor="#666666"
     borderopacity="1.0"
     inkscape:pageopacity="0.0"
     inkscape:pageshadow="2"
     inkscape:zoom="1.369098"
     inkscape:cx="339.95476"
     inkscape:cy="1004.8153"
     inkscape:document-units="mm"
     inkscape:current-layer="layer1"
     inkscape:document-rotation="0"
     showgrid="false"
     inkscape:window-width="1324"
     inkscape:window-height="731"
     inkscape:window-x="0"
     inkscape:window-y="0"
     inkscape:window-maximized="1" />
  <metadata
     id="metadata5">
    <rdf:RDF>
      <cc:Work
         rdf:about="">
        <dc:format>image/svg+xml</dc:format>
        <dc:type
           rdf:resource="http://purl.org/dc/dcmitype/StillImage" />
        <dc:title />
      </cc:Work>
    </rdf:RDF>
  </metadata>
  <g
     inkscape:label="Capa 1"
     inkscape:groupmode="layer"
     id="layer1">
    <path
       style="fill:#008080;stroke-width:0.37795276"
       d="m 335.69565,1016.6388 c 0.13479,-0.3013 2.18256,-3.5059 4.55059,-7.1215 3.12241,-4.7673 7.11681,-9.2832 14.53625,-16.43414 9.63036,-9.28186 16.59564,-17.37657 16.56719,-19.25356 -0.007,-0.45796 -1.03016,-1.54352 -2.27384,-2.41235 -1.24366,-0.86883 -6.41874,-5.34223 -11.50017,-9.94088 -5.08142,-4.59866 -11.3714,-9.97162 -13.97773,-11.93992 -8.75039,-6.60827 -18.03841,-9.61242 -25.73802,-8.3248 -8.51703,1.42433 -12.93597,3.8947 -22.74935,12.71786 -9.15938,8.23514 -15.70897,13.58937 -16.62328,13.58937 -0.42228,0 -8.3758,7.48881 -17.67448,16.64179 -9.29868,9.15298 -18.87879,18.30143 -21.28914,20.32993 -7.28211,6.1284 -17.89499,12.839 -17.89499,11.3152 0,-0.3784 1.65338,-3.16 3.67419,-6.1814 3.76024,-5.622 24.43917,-26.353 25.58219,-25.64658 0.56842,0.35131 21.25442,-20.24281 21.76474,-21.66807 0.50504,-1.41053 22.48705,-19.82892 28.22814,-23.65192 13.71963,-9.13594 22.91412,-9.80928 33.8873,-2.48166 2.47081,1.64993 9.826,8.09349 16.34488,14.319 19.04706,18.18992 21.47597,19.98275 25.65233,18.93455 0.96147,-0.24131 4.64914,-3.08868 8.19485,-6.32749 8.34157,-7.61958 20.00578,-15.36285 27.54429,-18.28524 7.06669,-2.73948 16.16424,-3.60773 22.49296,-2.14668 11.33222,2.61618 23.58894,10.76171 43.37252,28.82438 15.37009,14.0331 20.18123,17.65989 30.67713,23.12544 9.3313,4.85911 17.5262,10.03137 16.89448,10.66317 -0.21048,0.2104 -2.78311,-0.343 -5.71695,-1.23 -17.07679,-5.16256 -29.99603,-13.44354 -49.15874,-31.50978 -19.95689,-18.81498 -30.37256,-24.74565 -43.45927,-24.74565 -9.46411,0 -19.03622,3.97045 -30.67714,12.72468 -7.58295,5.70255 -17.4434,14.98576 -16.40517,15.4448 0.41767,0.18467 6.16963,3.4992 12.78214,7.36563 6.6125,3.86642 14.35299,8.10264 17.20108,9.41383 11.17974,5.14683 27.36658,9.19179 41.93295,10.47859 6.80965,0.6016 6.71443,0.6148 -5.11285,0.7091 -17.69915,0.1412 -29.12311,-1.8993 -42.37966,-7.56963 -6.64186,-2.84099 -16.4275,-8.47831 -21.68966,-12.49501 -4.0144,-3.06426 -6.16038,-3.63762 -9.08338,-2.42687 -4.98677,2.06558 -10.60832,7.7189 -28.0088,28.16701 -2.81265,3.3053 -11.37346,9.0537 -10.46758,7.0288 z"
       id="path843"
       transform="scale(0.26458333)"
       inkscape:export-filename="/home/rodrigo/development_projects/Dones/mlogo.png"
       inkscape:export-xdpi="96"
       inkscape:export-ydpi="96" />
  </g>
</svg>
